<?xml version="1.0" encoding="UTF-8" standalone="no"?>
<!DOCTYPE svg PUBLIC "-//W3C//DTD SVG 1.1//EN" "http://www.w3.org/Graphics/SVG/1.1/DTD/svg11.dtd">
<!-- Created with Vectornator (http://vectornator.io/) -->
<svg height="100%" stroke-miterlimit="10" style="fill-rule:nonzero;clip-rule:evenodd;stroke-linecap:round;stroke-linejoin:round;" version="1.1" viewBox="0 0 800 800" width="100%" xml:space="preserve" xmlns="http://www.w3.org/2000/svg" xmlns:vectornator="http://vectornator.io" xmlns:xlink="http://www.w3.org/1999/xlink">
<defs/>
<g id="Untitled" vectornator:layerName="Untitled">
<g opacity="1" vectornator:layerName="Layer 2">
<g opacity="1" vectornator:layerName="path">
<clipPath clip-rule="nonzero" id="ClipPath">
<path d="M0 0L800 0L800 800L0 800L0 0Z"/>
</clipPath>
<g clip-path="url(#ClipPath)">
<path d="M78.3638 463.364C120.543 418.435 177.512 392.3 238.432 385.906C263.57 383.268 288.979 383.541 314.108 386.135C324.611 387.219 333.024 388.425 344.072 390.455C352.344 391.975 360.572 393.742 368.735 395.773C377.26 397.894 385.843 400.167 394.108 403.178C397.806 404.526 402.378 402.28 404.272 399.042C406.417 395.373 405.437 391.248 402.864 388.136C380.147 360.646 353.858 335.493 326.494 312.719C302.987 293.156 277.933 275.039 250.684 261.024C224.158 247.381 194.842 237.019 164.691 236.984C129.32 236.941 97.5058 252.968 74.1358 279.136C66.4408 287.752 79.1288 300.526 86.8638 291.864C97.2418 280.242 108.005 271.276 121.988 264.411C132.66 259.172 146.728 255.745 158.469 255.138C185.333 253.751 212.322 262.208 236.324 273.922C285.513 297.928 326.87 333.76 364.789 372.983C373.507 382 382.142 391.19 390.136 400.864C393.055 395.849 395.974 390.835 398.893 385.821C374.138 376.801 347.37 372.102 321.328 368.946C266.904 362.348 209.875 366.393 158.701 387.051C123.38 401.31 91.7258 422.845 65.6358 450.635C57.7118 459.076 70.4148 471.831 78.3638 463.364" fill="#000000" fill-rule="nonzero" opacity="1" stroke="none" vectornator:layerName="path"/>
<path d="M103.957 600.271C128.314 615.639 155.34 628.509 184.104 632.552C207.965 635.906 231.516 632.836 253.534 622.985C274.39 613.653 292.443 598.495 307.754 581.732C325.595 562.2 340.521 540.066 354 517.365C368.797 492.444 381.946 466.577 394.726 440.577C408.014 413.541 420.859 386.288 434.342 359.347C447.338 333.379 460.893 307.629 476.295 282.994C483.43 271.583 490.971 260.415 499.117 249.699C499.337 249.409 500.819 247.48 500.14 248.357C499.482 249.209 500.753 247.574 500.957 247.317C502.041 245.938 503.132 244.564 504.238 243.202C506.202 240.781 508.201 238.39 510.239 236.031C514.285 231.35 518.483 226.799 522.857 222.422C527.159 218.118 531.631 213.98 536.292 210.066C537.352 209.176 538.422 208.297 539.501 207.431C540.081 206.966 540.663 206.508 541.245 206.049C542.436 205.108 540.024 206.954 541.68 205.72C544.027 203.971 546.389 202.248 548.813 200.607C553.492 197.44 558.338 194.521 563.346 191.905C565.867 190.589 568.43 189.364 571.023 188.196C571.577 187.946 572.136 187.709 572.694 187.466C571.066 188.175 572.177 187.678 573.067 187.325C574.383 186.802 575.703 186.286 577.033 185.8C582.282 183.881 587.658 182.31 593.118 181.114C595.937 180.497 598.775 180.009 601.626 179.562C603.279 179.302 599.682 179.764 602.016 179.508C602.639 179.439 603.261 179.359 603.884 179.292C605.454 179.122 607.026 178.981 608.601 178.871C614.548 178.452 620.525 178.455 626.474 178.841C629.523 179.039 632.562 179.347 635.593 179.727C633.248 179.433 635.753 179.753 636.292 179.837C637.1 179.964 637.909 180.086 638.715 180.22C640.351 180.492 641.983 180.791 643.61 181.113C650.203 182.422 656.702 184.148 663.107 186.178C674.175 189.685 678.913 172.313 667.892 168.821C642.957 160.921 616.527 158.144 590.741 163.255C567.212 167.918 545.896 179.465 527.271 194.305C507.333 210.191 490.825 230.044 476.132 250.757C459.796 273.785 445.758 298.384 432.603 323.337C418.673 349.76 405.757 376.7 392.758 403.588C379.923 430.136 367.05 456.686 352.988 482.613C340.053 506.461 326.101 529.851 309.686 551.491C309.385 551.889 307.879 553.825 309.21 552.118C308.79 552.656 308.37 553.195 307.947 553.731C306.968 554.973 305.98 556.208 304.981 557.436C303.014 559.854 301.009 562.241 298.961 564.591C295.058 569.071 291.003 573.419 286.77 577.588C282.7 581.597 278.467 585.442 274.05 589.065C273.029 589.903 271.996 590.723 270.96 591.54C270.892 591.593 272.064 590.724 270.623 591.791C269.978 592.268 269.338 592.752 268.691 593.226C266.526 594.807 264.32 596.333 262.073 597.793C257.582 600.713 252.925 603.379 248.111 605.729C246.899 606.321 245.676 606.884 244.449 607.442C243.924 607.681 243.393 607.904 242.865 608.137C244.682 607.335 243.262 607.977 242.357 608.334C239.861 609.322 237.344 610.246 234.788 611.067C229.741 612.689 224.578 613.948 219.35 614.826C218.414 614.983 214.791 615.447 217.396 615.145C216.026 615.303 214.658 615.466 213.284 615.588C210.496 615.837 207.698 615.981 204.899 616.022C199.167 616.106 193.466 615.716 187.776 615.042C187.242 614.979 189.457 615.314 187.604 615.013C186.852 614.891 186.097 614.786 185.344 614.662C183.818 614.411 182.296 614.134 180.779 613.833C177.652 613.211 174.546 612.484 171.466 611.663C165.005 609.941 158.658 607.804 152.439 605.35C151.606 605.021 150.776 604.683 149.946 604.346C149.394 604.123 147.799 603.437 149.226 604.049C147.402 603.266 145.589 602.459 143.787 601.627C140.418 600.072 137.089 598.432 133.798 596.72C126.707 593.03 119.802 588.994 113.042 584.728C103.217 578.529 94.1745 594.098 103.957 600.271" fill="#000000" fill-rule="nonzero" opacity="1" stroke="none" vectornator:layerName="path"/>
<path d="M692.5 294.5C692.48 296.01 692.433 297.518 692.33 299.024C692.283 299.718 691.804 304.053 692.124 301.742C691.734 304.557 691.164 307.35 690.42 310.092C689.696 312.76 688.802 315.378 687.753 317.936C688.66 315.724 687.192 319.087 686.98 319.523C686.285 320.951 685.537 322.354 684.742 323.73C683.486 325.902 682.088 327.969 680.641 330.016C680.42 330.328 678.984 332.152 680.387 330.384C679.958 330.925 679.524 331.462 679.083 331.992C678.044 333.24 676.965 334.455 675.853 335.637C674.073 337.527 672.205 339.334 670.268 341.061C669.189 342.021 668.09 342.956 666.971 343.867C666.405 344.328 665.835 344.783 665.259 345.23C666.986 343.889 664.446 345.813 664.137 346.038C659.396 349.482 654.388 352.552 649.227 355.324C646.408 356.837 643.542 358.261 640.641 359.606C639.281 360.237 637.912 360.847 636.539 361.445C636.16 361.61 634.491 362.313 636.029 361.67C635.004 362.098 633.975 362.515 632.942 362.926C619.913 368.105 606.393 372.003 592.735 375.131C563.825 381.752 537.265 384.651 507.489 386.372C482.732 387.802 457.904 388.05 433.118 387.351C420.911 387.006 408.672 386.538 396.5 385.5C388.655 384.831 384.719 395.762 390.136 400.864C418.013 427.123 447.932 451.493 478.599 474.39C503.344 492.864 529.015 510.377 556.274 524.953C579.891 537.582 605.799 549.268 632.869 551.15C645.11 552.003 657.843 550.132 668.636 544.042C680.489 537.354 688.14 526.249 693.179 513.893C695.015 509.39 691.185 504.001 686.893 502.821C681.738 501.405 677.664 504.588 675.821 509.107C674.906 511.351 676.622 507.418 675.613 509.575C675.32 510.203 675.033 510.832 674.728 511.454C674.137 512.656 673.507 513.839 672.834 514.997C672.188 516.108 671.504 517.198 670.778 518.26C670.426 518.776 670.056 519.279 669.692 519.788C668.632 521.271 670.908 518.399 669.398 520.13C667.899 521.847 666.337 523.431 664.672 524.984C664.252 525.376 663.791 525.725 663.352 526.094C665.281 524.471 663.817 525.763 663.359 526.068C662.338 526.749 661.34 527.45 660.282 528.076C659.393 528.603 658.484 529.095 657.559 529.554C657.053 529.805 656.537 530.032 656.028 530.275C654.209 531.14 657.992 529.57 656.088 530.238C653.726 531.066 651.381 531.836 648.929 532.367C647.968 532.575 646.999 532.73 646.033 532.91C643.953 533.297 648.174 532.703 646.054 532.916C645.451 532.977 644.85 533.048 644.245 533.101C641.543 533.337 638.826 533.395 636.115 533.314C633.698 533.242 631.297 533.029 628.893 532.782C628.443 532.736 626.146 532.397 628.587 532.756C627.903 532.656 627.221 532.554 626.539 532.443C624.915 532.179 623.297 531.877 621.685 531.543C615.802 530.325 610.012 528.68 604.319 526.768C598.168 524.701 591.741 522.13 587.431 520.228C581.032 517.404 574.743 514.335 568.545 511.096C541.996 497.22 516.991 480.434 492.886 462.703C472.329 447.581 452.509 431.655 432.323 414.351C422.349 405.8 412.43 397.146 402.864 388.136C400.743 393.257 398.621 398.379 396.5 403.5C431.237 406.461 466.483 406.431 501.271 404.705C531.741 403.194 562.315 400.048 592.178 393.67C618.995 387.942 646.558 379.525 669.543 364.144C693.604 348.043 710.12 324.121 710.5 294.5C710.648 282.914 692.648 282.907 692.5 294.5" fill="#000000" fill-rule="nonzero" opacity="1" stroke="none" vectornator:layerName="path"/>
</g>
</g>
<g opacity="1" vectornator:layerName="path">
<clipPath clip-rule="nonzero" id="ClipPath_2">
<path d="M0 0L800 0L800 800L0 800L0 0Z"/>
</clipPath>
<g clip-path="url(#ClipPath_2)">
<path d="M80.6787 459.393C82.4877 447.996 85.7397 438.302 90.7407 428.998C96.1037 419.023 101.542 411.904 109.089 404.004C124.925 387.432 143.568 375.331 164.363 364.714C200.43 346.3 241.025 334.306 281.548 326.248C287.996 324.966 294.467 323.791 300.961 322.766C302.73 322.486 304.502 322.226 306.274 321.967C309.137 321.547 304.075 322.242 306 322C310.822 321.395 315 318.297 315 313C315 308.607 310.857 303.391 306 304C279.871 307.279 253.913 313.269 228.669 320.652C183.047 333.994 135.842 353.21 101.045 386.588C81.9827 404.872 67.5047 428.255 63.3217 454.608C62.5597 459.403 64.5537 464.29 69.6077 465.679C73.8887 466.855 79.9117 464.222 80.6787 459.393" fill="#000000" fill-rule="nonzero" opacity="1" stroke="none" vectornator:layerName="path"/>
<path d="M232.271 325.957C209.403 295.587 171.82 275.431 134.405 271.225C115.522 269.103 96.279 271.472 78.107 276.821C67.019 280.085 71.739 297.461 82.893 294.178C110.44 286.069 139.278 286.551 165.942 297.631C183.277 304.835 197.635 315.082 210.511 328.254C212.403 330.19 214.244 332.179 215.999 334.241C217.122 335.561 218.946 337.987 216.729 335.042C219.648 338.919 224.5 340.927 229.042 338.27C232.862 336.037 235.212 329.863 232.271 325.957" fill="#000000" fill-rule="nonzero" opacity="1" stroke="none" vectornator:layerName="path"/>
<path d="M295.771 470.458C286.281 457.455 273.004 446.81 259.413 438.435C227.953 419.049 190.715 412.976 154.373 418.002C123.625 422.255 94.418 434.162 67.458 449.229C57.344 454.88 66.41 470.434 76.542 464.771C99.551 451.913 124.041 441.685 150.042 436.828C168.387 433.402 188.202 433.148 205.664 436.576C221.227 439.631 233.601 444.275 246.694 451.812C251.901 454.811 256.883 458.153 261.684 461.763C262.119 462.089 260.508 460.818 261.898 461.932C262.386 462.322 262.875 462.708 263.36 463.102C264.363 463.915 265.354 464.743 266.334 465.585C268.03 467.042 269.69 468.541 271.311 470.083C273.966 472.608 276.523 475.245 278.917 478.02C279.588 478.797 280.211 479.616 280.885 480.389C281.998 481.663 279.213 478.15 280.229 479.542C283.09 483.463 288.045 485.402 292.542 482.771C296.412 480.508 298.653 474.405 295.771 470.458" fill="#000000" fill-rule="nonzero" opacity="1" stroke="none" vectornator:layerName="path"/>
<path d="M446.864 315.136C420.281 292.83 390.053 273.979 359.309 258.076C303.563 229.24 239.026 208.428 175.816 220.045C136.034 227.356 100.841 249.069 74.1363 279.136C66.4673 287.771 79.1523 300.546 86.8643 291.864C109.443 266.441 137.788 247.58 170.88 239.481C200.131 232.323 231.306 233.803 260.587 240.184C313.52 251.719 362.313 277.027 406.936 307.685C414.107 312.612 421.133 317.733 428.056 322.999C429.71 324.258 426.225 321.554 428.286 323.179C428.792 323.579 429.302 323.974 429.809 324.374C430.605 325.002 431.398 325.633 432.187 326.27C432.841 326.797 433.493 327.324 434.135 327.864C437.857 330.986 443.216 331.511 446.864 327.864C450.072 324.656 450.604 318.275 446.864 315.136" fill="#000000" fill-rule="nonzero" opacity="1" stroke="none" vectornator:layerName="path"/>
<path d="M366.864 274.864C373.015 268.253 379.563 261.985 386.15 255.814C401.822 241.128 419.188 226.489 435.349 214.459C457.29 198.129 480.533 183.301 505.342 171.704C528.609 160.828 555.228 152.532 580.748 152.158C610.566 151.721 637.838 162.744 659.636 184.364C667.87 192.531 680.604 179.809 672.364 171.636C650.935 150.382 623.84 137.215 593.713 134.612C565.756 132.197 537.401 138.999 511.637 149.469C462.488 169.442 418.724 201.751 379.698 237.288C370.926 245.277 362.223 253.445 354.136 262.136C346.253 270.61 358.953 283.367 366.864 274.864" fill="#000000" fill-rule="nonzero" opacity="1" stroke="none" vectornator:layerName="path"/>
<path d="M666 169C638.786 172.501 612.894 181.975 590.529 198.033C569.84 212.888 552.722 231.841 538.624 252.98C515.878 287.088 500.785 326.531 491.339 366.296C489.355 374.646 487.487 383.097 486.321 391.607C485.662 396.417 487.483 401.271 492.607 402.679C496.808 403.833 503.015 401.239 503.679 396.393C506.784 373.728 513.284 351.165 520.91 329.667C528.002 309.674 536.223 291.367 547.61 272.423C559.656 252.385 573.532 234.883 591.752 219.676C612.397 202.443 638.67 190.517 666 187C670.82 186.38 675 183.308 675 178C675 173.619 670.854 168.375 666 169" fill="#000000" fill-rule="nonzero" opacity="1" stroke="none" vectornator:layerName="path"/>
<path d="M519.107 321.179C539.74 327.613 561.018 332.458 582.291 336.186C600.326 339.346 618.653 341.732 636.987 341.89C653.324 342.032 670.264 340.512 685.274 333.633C701.049 326.403 710.356 311.813 710.5 294.5C710.596 282.915 692.596 282.904 692.5 294.5C692.485 296.205 692.406 297.906 692.196 299.599C692.392 298.014 692.294 299.035 692.079 299.925C691.871 300.786 691.698 301.653 691.454 302.506C691.248 303.229 690.97 303.931 690.757 304.652C690.253 306.354 690.913 304.423 690.706 304.831C690.003 306.218 689.244 307.516 688.454 308.853C687.935 309.73 687.503 310.136 688.426 308.995C687.98 309.547 687.523 310.089 687.044 310.613C686.002 311.752 684.868 312.769 683.703 313.778C682.437 314.873 684.94 312.95 683.539 313.893C682.922 314.308 682.318 314.736 681.69 315.133C680.308 316.008 678.873 316.798 677.404 317.516C676.798 317.813 676.184 318.089 675.57 318.367C677.244 317.61 675.57 318.364 674.848 318.629C673.17 319.243 671.481 319.812 669.763 320.305C666.479 321.249 663.131 321.962 659.761 322.516C658.846 322.666 657.93 322.807 657.012 322.931C658.768 322.694 656.356 322.991 655.785 323.053C653.856 323.26 651.922 323.423 649.986 323.55C645.955 323.812 641.914 323.913 637.874 323.896C629.372 323.86 620.876 323.301 612.421 322.428C610.423 322.221 608.427 321.996 606.434 321.755C603.277 321.373 603.53 321.404 601.031 321.049C596.812 320.45 592.603 319.783 588.405 319.06C573.91 316.562 559.527 313.408 545.279 309.763C538.115 307.93 530.953 306.024 523.892 303.822C512.808 300.366 508.067 317.736 519.107 321.179" fill="#000000" fill-rule="nonzero" opacity="1" stroke="none" vectornator:layerName="path"/>
<path d="M486 475C512.655 472.853 539.47 466.951 564.989 459.174C611.362 445.042 658.327 421.868 687.136 381.451C705.036 356.335 712.69 325.621 711 295C710.364 283.48 692.36 283.406 693 295C694.426 320.826 689.232 344.776 675.607 366.384C663.724 385.231 646.073 400.653 626.923 412.528C606.795 425.01 587.813 432.986 565.685 440.102C547.844 445.839 529.573 450.258 511.121 453.51C507.399 454.165 503.669 454.772 499.93 455.324C499.127 455.443 498.323 455.56 497.52 455.673C496.991 455.748 494.377 456.104 496.282 455.848C498.168 455.595 495.764 455.915 495.249 455.979C494.633 456.057 494.017 456.135 493.4 456.21C490.938 456.51 488.472 456.801 486 457C481.154 457.391 477 460.857 477 466C477 470.567 481.128 475.393 486 475" fill="#000000" fill-rule="nonzero" opacity="1" stroke="none" vectornator:layerName="path"/>
<path d="M567.229 460.542C575.838 473.434 585.78 485.669 596.348 496.988C612.051 513.805 632.758 533.148 657.015 534.579C671.699 535.444 683.578 527.042 691.772 515.542C694.594 511.582 692.471 505.526 688.542 503.229C684.025 500.586 679.058 502.487 676.229 506.458C673.777 509.898 670.389 512.934 666.752 514.916C665.019 515.86 667.538 514.888 665.195 515.572C664.278 515.841 663.359 516.085 662.435 516.331C659.967 516.988 663.016 516.528 660.958 516.56C659.758 516.577 658.577 516.626 657.375 516.597C656.771 516.581 656.167 516.515 655.565 516.46C655.885 516.488 657.478 516.79 655.77 516.482C654.785 516.306 653.804 516.11 652.832 515.87C651.583 515.562 650.35 515.192 649.133 514.779C648.54 514.578 645.346 513.29 646.821 513.937C642.11 511.87 637.671 509.191 633.455 506.257C629.417 503.445 625.983 500.628 621.642 496.697C617.384 492.843 613.315 488.783 609.389 484.594C605.798 480.763 602.33 476.818 598.961 472.791C597.521 471.067 596.099 469.328 594.696 467.575C593.929 466.618 593.172 465.654 592.415 464.691C590.922 462.797 592.741 465.154 591.326 463.28C588.397 459.4 585.473 455.503 582.772 451.458C576.37 441.871 560.772 450.873 567.229 460.542" fill="#000000" fill-rule="nonzero" opacity="1" stroke="none" vectornator:layerName="path"/>
<path d="M364.457 482.772C375.018 488.747 385.801 494.351 396.607 499.866C422.224 512.938 448.295 525.104 474.821 536.221C504.775 548.776 535.487 560.108 567.124 567.643C593.397 573.9 622.763 578.928 649.408 571.848C660.201 568.98 670.766 563.572 678.267 555.137C686.814 545.526 690.933 533.644 692.424 521.027C692.818 517.696 692.986 514.353 692.999 511.001C693.046 499.417 675.047 499.402 674.999 511.001C674.986 514.241 674.79 517.454 674.466 520.676C674.286 522.482 674.72 519.291 674.415 521.046C674.278 521.824 674.157 522.604 674.007 523.38C673.74 524.77 673.427 526.151 673.062 527.519C672.712 528.827 672.318 530.123 671.872 531.401C671.671 531.974 671.441 532.537 671.242 533.109C670.566 535.051 671.771 532.101 671.112 533.423C670.003 535.648 668.898 537.828 667.502 539.891C667.14 540.427 666.75 540.942 666.379 541.471C666.078 541.901 667.627 540.094 666.428 541.375C665.559 542.301 664.762 543.286 663.861 544.186C663.092 544.954 662.272 545.657 661.473 546.391C661.224 546.621 659.775 547.785 660.912 546.886C662.033 546.001 660.239 547.376 659.852 547.637C657.86 548.983 655.811 550.21 653.653 551.274C653.147 551.524 652.624 551.744 652.121 551.999C650.518 552.809 652.683 551.795 652.171 551.991C650.901 552.475 649.636 552.964 648.343 553.389C645.852 554.208 643.311 554.871 640.745 555.409C639.512 555.667 638.274 555.882 637.034 556.096C635.994 556.276 634.782 556.422 636.563 556.194C635.806 556.292 635.048 556.381 634.29 556.462C628.302 557.102 622.266 557.212 616.251 556.991C613.013 556.871 609.78 556.65 606.554 556.35C604.886 556.196 603.221 556.019 601.558 555.823C600.779 555.731 600 555.632 599.222 555.535C597.697 555.341 600.171 555.689 598.076 555.371C590.841 554.274 583.655 552.951 576.513 551.351C545.893 544.49 516.145 533.835 487.138 521.982C474.128 516.666 460.406 510.639 446.461 504.176C434.685 498.717 423 493.06 411.409 487.221C398.837 480.889 386.592 473.947 374.075 467.529C373.894 467.436 373.719 467.33 373.542 467.229C363.446 461.517 354.364 477.061 364.457 482.772" fill="#000000" fill-rule="nonzero" opacity="1" stroke="none" vectornator:layerName="path"/>
<path d="M315.321 382.607C312.696 391.638 309.594 400.547 306.414 409.394C298.539 431.297 291.342 448.69 281.383 469.334C269.695 493.558 256.32 517.076 240.134 538.598C238.886 540.257 236.959 542.705 234.855 545.263C232.694 547.894 230.479 550.481 228.205 553.016C223.867 557.853 219.317 562.505 214.517 566.887C205.813 574.832 197.499 581.062 185.985 586.739C184.463 587.49 182.923 588.206 181.364 588.878C182.945 588.197 181.678 588.744 181.357 588.872C180.395 589.254 179.431 589.63 178.459 589.986C175.436 591.09 172.356 592.037 169.231 592.806C167.609 593.206 165.976 593.558 164.333 593.859C163.826 593.952 163.318 594.033 162.812 594.124C160.321 594.571 162.864 594.176 161.373 594.338C158.132 594.692 154.884 594.89 151.621 594.87C149.897 594.859 148.173 594.794 146.453 594.672C145.59 594.612 141.488 594.171 143.204 594.402C139.746 593.937 136.314 593.217 132.942 592.327C124.833 590.183 119.687 588.003 112.542 584.228C108.594 582.143 103.671 582.881 100.932 586.546C98.4893 589.816 98.0963 595.514 101.636 598.364C138.104 627.719 179.53 654.304 225.947 664.177C258.628 671.129 292.015 668.649 322.695 655.199C347.864 644.166 369.699 626.094 387.504 605.346C402.668 587.673 415.472 568.015 425.99 547.255C431.348 536.679 437.329 525.347 440.518 513.858C440.562 513.701 440.627 513.547 440.678 513.392C444.356 502.38 426.979 497.657 423.321 508.607C422.551 510.911 421.671 513.18 420.781 515.439C420.302 516.652 419.811 517.86 419.317 519.067C419.12 519.548 418.199 521.738 418.911 520.052C419.634 518.337 418.486 521.036 418.267 521.542C416.798 524.931 415.262 528.293 413.67 531.627C409.559 540.226 405.062 548.642 400.185 556.831C397.316 561.648 394.314 566.385 391.173 571.029C389.583 573.378 387.959 575.704 386.298 578.003C385.416 579.222 384.524 580.435 383.622 581.64C383.201 582.202 382.777 582.759 382.354 583.319C381.113 584.96 382.755 582.824 381.821 584.012C374.032 593.923 365.562 603.293 356.221 611.767C353.788 613.975 351.299 616.122 348.754 618.2C348.163 618.682 347.568 619.16 346.972 619.636C346.701 619.853 345.06 621.133 345.775 620.583C346.488 620.033 344.828 621.295 344.549 621.503C343.726 622.114 342.902 622.722 342.07 623.322C336.707 627.18 331.12 630.729 325.323 633.9C322.321 635.543 319.262 637.084 316.154 638.515C315.399 638.863 311.779 640.429 313.186 639.846C311.452 640.564 309.704 641.249 307.943 641.898C301.374 644.32 294.623 646.247 287.763 647.647C279.984 649.236 275.447 649.768 266.912 650.061C258.979 650.334 251.029 649.949 243.152 648.987C240.853 648.706 235.413 647.792 231.739 647.032C227.264 646.107 222.825 645.009 218.431 643.76C209.424 641.201 200.549 638.049 191.975 634.283C170.18 624.71 149.778 612.136 130.584 598.112C125.074 594.086 119.679 589.915 114.363 585.635C110.728 590.347 107.092 595.059 103.457 599.771C127.711 612.582 155.476 616.978 181.784 607.863C206.864 599.172 227.709 581.361 244.721 561.412C279.128 521.065 302.376 471.551 320.825 422.212C325.113 410.743 329.258 399.157 332.678 387.392C335.918 376.247 318.554 371.488 315.321 382.607" fill="#000000" fill-rule="nonzero" opacity="1" stroke="none" vectornator:layerName="path"/>
</g>
</g>
</g>
</g>
</svg>
